<?xml version="1.0" encoding="utf-8"?>
<!-- Generator: Adobe Illustrator 21.0.0, SVG Export Plug-In . SVG Version: 6.00 Build 0)  -->
<svg version="1.1" id="Layer_1" xmlns="http://www.w3.org/2000/svg" xmlns:xlink="http://www.w3.org/1999/xlink" x="0px" y="0px"
	 viewBox="0 0 154 23" style="enable-background:new 0 0 154 23;" xml:space="preserve">
<style type="text/css">
	.st0{fill:#A5133D;}
	.st1{fill:#DD1245;}
	.st2{fill:#352E30;}
	.st3{font-family:'MalgunGothicBold';}
	.st4{font-size:15.0835px;}
</style>
<g>
	<g>
		<path class="st0" d="M19.2,6.6l2-6l-9.2,8.9c0.6,0.7,1.3,1.4,2,2.2L19.2,6.6z"/>
		<path class="st1" d="M5.4,2.4l0.9,12.5l5.6-5.4C8.5,5.7,5.4,2.4,5.4,2.4z"/>
		<path class="st1" d="M26,0l-6.8,6.6l-4.7,14.1l4.3,1.1l0-0.1c2.3,0.6,5.4,1.3,5.4,1.3s-2.8-3-4.3-4.7L26,0z"/>
		<path class="st1" d="M13.9,11.7c-0.7-0.7-1.3-1.5-2-2.2l-5.6,5.4l0.3,3.8l7.8,2l4.7-14.1L13.9,11.7z"/>
	</g>
	<polyline class="st0" points="5.4,2.4 0,7.3 6,7.1 	"/>
	<text transform="matrix(1 0 0 1 33.3315 18.9474)" class="st2 st3 st4">전주한지문화축제</text>
</g>
</svg>
