<?xml version="1.0" encoding="utf-8"?>
<!-- Generator: Adobe Illustrator 21.0.0, SVG Export Plug-In . SVG Version: 6.00 Build 0)  -->
<svg version="1.1" id="Layer_1" xmlns="http://www.w3.org/2000/svg" xmlns:xlink="http://www.w3.org/1999/xlink" x="0px" y="0px"
	 viewBox="0 0 154 23" style="enable-background:new 0 0 154 23;" xml:space="preserve">
<style type="text/css">
	.st0{fill:#A5133D;}
	.st1{fill:#DD1245;}
	.st2{fill:#EFEAEC;}
</style>
<g>
	<g>
		<path class="st0" d="M19.2,6.6l2-6l-9.2,8.9c0.6,0.7,1.3,1.4,2,2.2L19.2,6.6z"/>
		<path class="st1" d="M5.4,2.4l0.9,12.5l5.6-5.4C8.5,5.7,5.4,2.4,5.4,2.4z"/>
		<path class="st1" d="M26,0l-6.8,6.6l-4.7,14.1l4.3,1.1l0-0.1c2.3,0.6,5.4,1.3,5.4,1.3s-2.8-3-4.3-4.7L26,0z"/>
		<path class="st1" d="M13.9,11.7c-0.7-0.7-1.3-1.5-2-2.2l-5.6,5.4l0.3,3.8l7.8,2l4.7-14.1L13.9,11.7z"/>
	</g>
	<polyline class="st0" points="5.4,2.4 0,7.3 6,7.1 	"/>
	<g>
		<path class="st2" d="M41.8,14.5c-1.3-0.7-2.4-1.6-3.2-2.7c-0.3,0.5-0.7,1.1-1.4,1.8c-0.7,0.6-1.3,1.1-1.9,1.4l-1.3-1.3
			c1-0.4,1.8-1,2.5-1.8s1-1.7,1-2.6V8.4h-2.9V6.9h7.6v1.5h-2.9v0.8c0,0.9,0.3,1.6,1,2.3c0.7,0.7,1.5,1.2,2.5,1.6L41.8,14.5z
			 M37.1,19.8V15H39v3.2h7.6v1.6H37.1z M44.6,16.2v-5.1h-2.8V9.7h2.8V6.1h1.8v10.2H44.6z"/>
		<path class="st2" d="M56.9,14.8v5.5H55v-5.5h-5.7v-1.6h13.2v1.6H56.9z M61.1,12.3c-2.2-0.4-4-1.3-5.2-2.7
			c-0.4,0.6-1.1,1.1-2.1,1.6s-2,0.9-3,1.1l-1.1-1.4c1.2-0.1,2.3-0.4,3.3-0.9c1-0.5,1.6-1.1,1.9-1.8h-4.1V6.6h10.3v1.6H57
			c0.3,0.7,0.9,1.2,1.8,1.7s2,0.8,3.3,1L61.1,12.3z"/>
		<path class="st2" d="M64.6,8.9V7.5H68V5.9h1.9v1.6h3.4v1.5H64.6z M68.9,15c-1.1,0-2-0.3-2.7-0.8c-0.7-0.5-1-1.2-1-1.9
			c0-0.8,0.3-1.4,1-1.9s1.6-0.8,2.7-0.8c1.1,0,2,0.3,2.7,0.8c0.7,0.5,1,1.1,1,1.9c0,0.8-0.3,1.4-1,1.9C70.9,14.7,70.1,15,68.9,15z
			 M66.8,19.8v-4.2h1.9v2.6h7.7v1.6H66.8z M68.9,11.1c-0.6,0-1,0.1-1.3,0.3c-0.3,0.2-0.5,0.5-0.5,0.9c0,0.4,0.2,0.7,0.5,0.9
			c0.3,0.2,0.8,0.3,1.4,0.3c0.6,0,1.1-0.1,1.4-0.3c0.3-0.2,0.5-0.5,0.5-0.9c0-0.4-0.2-0.6-0.5-0.9C70,11.2,69.5,11.1,68.9,11.1z
			 M75.9,12.3v4.1H74V6.1h1.8v4.7h2.2v1.6H75.9z"/>
		<path class="st2" d="M87.1,16.8c-1.4-1-2.4-2.1-3.2-3.4c-1,1.7-2,3-3.2,3.7l-1.4-1.2c0.9-0.4,1.7-1.2,2.5-2.3
			c0.7-1.1,1.1-2.2,1.1-3.2V8.8h-3.1V7.3h7.9v1.6h-3v1.5c0,1,0.4,2,1.1,3s1.5,1.7,2.4,2.2L87.1,16.8z M89.6,20.3V6.1h1.8v14.2H89.6z
			"/>
		<path class="st2" d="M102.3,14.5v2.8h-1.8v-2.8h-5.8V13h13.2v1.6H102.3z M96.5,19.8v-4.3h1.9v2.7h7.6v1.6H96.5z M96.6,11.7V6.6
			h9.2v5.1H96.6z M104,8.2h-5.5v2h5.5V8.2z"/>
		<path class="st2" d="M119.1,18c-2.6,0.2-5.9,0.2-9.8,0.2l-0.2-1.5l4.1,0v-1.4c-0.9-0.1-1.5-0.5-2-1c-0.5-0.5-0.7-1.1-0.7-1.8
			c0-0.8,0.3-1.5,1-2c0.7-0.5,1.6-0.8,2.7-0.8c1.1,0,2,0.2,2.7,0.7c0.7,0.5,1,1.2,1,2c0,0.7-0.2,1.3-0.7,1.8c-0.5,0.5-1.2,0.8-2,1
			v1.4c2,0,3.3-0.1,3.9-0.2L119.1,18z M109.7,9.2V7.6h3.5V6h1.9v1.7h3.5v1.6H109.7z M114.1,11.2c-0.6,0-1,0.1-1.3,0.4
			c-0.3,0.3-0.5,0.6-0.5,0.9c0,0.4,0.2,0.7,0.5,0.9c0.3,0.2,0.8,0.4,1.4,0.4c0.6,0,1-0.1,1.3-0.4c0.3-0.2,0.5-0.5,0.5-0.9
			c0-0.4-0.2-0.7-0.5-0.9C115.2,11.3,114.7,11.2,114.1,11.2z M121.4,13.7v6.6h-1.9V6.1h1.9v6.1h2.1v1.6H121.4z"/>
		<path class="st2" d="M134.2,20.3V17h-7.6v-1.6h3.9v-1.3h-5.7v-1.6H138v1.6h-5.7v1.3h3.7v4.9H134.2z M136.6,11.9
			c-1-0.1-2-0.3-3-0.7c-1-0.4-1.8-0.8-2.2-1.3c-0.5,0.5-1.2,0.9-2.2,1.3c-1,0.4-2.1,0.6-3.1,0.7l-1-1.5c1.1,0,2.2-0.2,3.1-0.5
			c1-0.3,1.6-0.8,2-1.3h-4V7.2h4.2V5.9h1.9v1.3h4.2v1.5h-4c0.4,0.5,1,0.9,2,1.3s2,0.5,3,0.5L136.6,11.9z"/>
		<path class="st2" d="M145.8,16.7c-0.4-0.3-0.8-0.7-1.3-1.3c-0.5-0.6-0.8-1.1-1-1.5c-0.2,0.5-0.6,1.1-1.1,1.8
			c-0.5,0.7-1,1.2-1.5,1.5l-1.4-1.2c1-0.6,1.7-1.5,2.2-2.4c0.5-1,0.8-2,0.8-3.2V8.8h-2.4V7.3h6.4v1.5h-2.2v1.7c0,1,0.2,1.9,0.7,2.8
			s1.1,1.6,2,2.1L145.8,16.7z M147.5,19.9v-7.6h-2v-1.5h2V6.4h1.8v13.5H147.5z M150.4,20.3V6.1h1.8v14.2H150.4z"/>
	</g>
</g>
</svg>
